<svg width="630" height="364" viewBox="0 0 630 364" fill="none" xmlns="http://www.w3.org/2000/svg">
<rect width="630" height="364" fill="#1E293B"/>
<circle cx="87" cy="155" r="13" stroke="#64748B" stroke-width="4"/>
<path d="M106.586 138.406L88.0938 156.898L81.3438 150.078C80.9922 149.797 80.4297 149.797 80.1484 150.078L78.1094 152.117C77.8281 152.398 77.8281 152.961 78.1094 153.312L87.5312 162.664C87.8828 163.016 88.375 163.016 88.7266 162.664L109.82 141.57C110.102 141.289 110.102 140.727 109.82 140.375L107.781 138.406C107.5 138.055 106.938 138.055 106.586 138.406Z" fill="#F43F5E"/>
<path d="M116.722 164V146.545H127.903V149.196H119.884V153.935H127.136V156.585H119.884V164H116.722ZM149.981 155.273C149.981 157.153 149.628 158.764 148.924 160.105C148.225 161.44 147.27 162.463 146.06 163.173C144.856 163.884 143.489 164.239 141.961 164.239C140.432 164.239 139.063 163.884 137.853 163.173C136.648 162.457 135.694 161.432 134.989 160.097C134.29 158.756 133.941 157.148 133.941 155.273C133.941 153.392 134.29 151.784 134.989 150.449C135.694 149.108 136.648 148.082 137.853 147.372C139.063 146.662 140.432 146.307 141.961 146.307C143.489 146.307 144.856 146.662 146.06 147.372C147.27 148.082 148.225 149.108 148.924 150.449C149.628 151.784 149.981 153.392 149.981 155.273ZM146.802 155.273C146.802 153.949 146.594 152.832 146.18 151.923C145.77 151.009 145.202 150.318 144.475 149.852C143.748 149.381 142.91 149.145 141.961 149.145C141.012 149.145 140.174 149.381 139.447 149.852C138.719 150.318 138.148 151.009 137.734 151.923C137.324 152.832 137.12 153.949 137.12 155.273C137.12 156.597 137.324 157.716 137.734 158.631C138.148 159.54 138.719 160.23 139.447 160.702C140.174 161.168 141.012 161.401 141.961 161.401C142.91 161.401 143.748 161.168 144.475 160.702C145.202 160.23 145.77 159.54 146.18 158.631C146.594 157.716 146.802 156.597 146.802 155.273ZM156.57 164V146.545H159.732V161.349H167.419V164H156.57ZM173.764 164V146.545H176.926V161.349H184.613V164H173.764ZM205.874 155.273C205.874 157.153 205.522 158.764 204.818 160.105C204.119 161.44 203.164 162.463 201.954 163.173C200.749 163.884 199.383 164.239 197.855 164.239C196.326 164.239 194.957 163.884 193.747 163.173C192.542 162.457 191.588 161.432 190.883 160.097C190.184 158.756 189.835 157.148 189.835 155.273C189.835 153.392 190.184 151.784 190.883 150.449C191.588 149.108 192.542 148.082 193.747 147.372C194.957 146.662 196.326 146.307 197.855 146.307C199.383 146.307 200.749 146.662 201.954 147.372C203.164 148.082 204.119 149.108 204.818 150.449C205.522 151.784 205.874 153.392 205.874 155.273ZM202.695 155.273C202.695 153.949 202.488 152.832 202.073 151.923C201.664 151.009 201.096 150.318 200.369 149.852C199.641 149.381 198.803 149.145 197.855 149.145C196.906 149.145 196.068 149.381 195.34 149.852C194.613 150.318 194.042 151.009 193.627 151.923C193.218 152.832 193.014 153.949 193.014 155.273C193.014 156.597 193.218 157.716 193.627 158.631C194.042 159.54 194.613 160.23 195.34 160.702C196.068 161.168 196.906 161.401 197.855 161.401C198.803 161.401 199.641 161.168 200.369 160.702C201.096 160.23 201.664 159.54 202.073 158.631C202.488 157.716 202.695 156.597 202.695 155.273ZM215.692 164L210.766 146.545H214.166L217.311 159.372H217.473L220.831 146.545H223.925L227.291 159.381H227.445L230.589 146.545H233.99L229.064 164H225.945L222.45 151.753H222.314L218.811 164H215.692ZM239.783 164V146.545H251.135V149.196H242.944V153.935H250.547V156.585H242.944V161.349H251.203V164H239.783ZM257.961 164V146.545H264.506C265.847 146.545 266.972 146.778 267.881 147.244C268.796 147.71 269.486 148.364 269.952 149.205C270.424 150.04 270.66 151.014 270.66 152.128C270.66 153.247 270.421 154.219 269.944 155.043C269.472 155.861 268.776 156.494 267.856 156.943C266.935 157.386 265.804 157.608 264.463 157.608H259.802V154.983H264.037C264.821 154.983 265.463 154.875 265.963 154.659C266.463 154.437 266.833 154.116 267.071 153.696C267.316 153.27 267.438 152.747 267.438 152.128C267.438 151.509 267.316 150.98 267.071 150.543C266.827 150.099 266.455 149.764 265.955 149.537C265.455 149.304 264.81 149.188 264.02 149.188H261.123V164H257.961ZM266.978 156.091L271.299 164H267.77L263.526 156.091H266.978Z" fill="#F1F1EF"/>
<circle cx="87" cy="203" r="13" stroke="#64748B" stroke-width="4"/>
<path d="M106.586 186.406L88.0938 204.898L81.3438 198.078C80.9922 197.797 80.4297 197.797 80.1484 198.078L78.1094 200.117C77.8281 200.398 77.8281 200.961 78.1094 201.312L87.5312 210.664C87.8828 211.016 88.375 211.016 88.7266 210.664L109.82 189.57C110.102 189.289 110.102 188.727 109.82 188.375L107.781 186.406C107.5 186.055 106.938 186.055 106.586 186.406Z" fill="#F43F5E"/>
<path d="M122.636 212H116.722V194.545H122.756C124.489 194.545 125.977 194.895 127.222 195.594C128.472 196.287 129.432 197.284 130.102 198.585C130.773 199.886 131.108 201.443 131.108 203.256C131.108 205.074 130.77 206.636 130.094 207.943C129.423 209.25 128.455 210.253 127.188 210.952C125.926 211.651 124.409 212 122.636 212ZM119.884 209.264H122.483C123.699 209.264 124.713 209.043 125.526 208.599C126.338 208.151 126.949 207.483 127.358 206.597C127.767 205.705 127.972 204.591 127.972 203.256C127.972 201.92 127.767 200.812 127.358 199.932C126.949 199.045 126.344 198.384 125.543 197.946C124.747 197.503 123.759 197.281 122.577 197.281H119.884V209.264ZM140.874 194.545V212H137.712V194.545H140.874ZM157.384 199.344C157.304 198.599 156.969 198.02 156.378 197.605C155.793 197.19 155.032 196.983 154.094 196.983C153.435 196.983 152.87 197.082 152.398 197.281C151.927 197.48 151.566 197.75 151.316 198.091C151.066 198.432 150.938 198.821 150.932 199.259C150.932 199.622 151.015 199.937 151.179 200.205C151.35 200.472 151.58 200.699 151.87 200.886C152.16 201.068 152.481 201.222 152.833 201.347C153.185 201.472 153.54 201.577 153.898 201.662L155.535 202.071C156.194 202.224 156.827 202.432 157.435 202.693C158.049 202.955 158.597 203.284 159.08 203.682C159.569 204.08 159.955 204.56 160.239 205.122C160.523 205.685 160.665 206.344 160.665 207.099C160.665 208.122 160.404 209.023 159.881 209.801C159.358 210.574 158.603 211.179 157.614 211.616C156.631 212.048 155.441 212.264 154.043 212.264C152.685 212.264 151.506 212.054 150.506 211.634C149.512 211.213 148.733 210.599 148.171 209.793C147.614 208.986 147.313 208.003 147.267 206.844H150.378C150.424 207.452 150.611 207.957 150.941 208.361C151.27 208.764 151.699 209.065 152.228 209.264C152.762 209.463 153.358 209.562 154.017 209.562C154.705 209.562 155.307 209.46 155.824 209.256C156.347 209.045 156.756 208.756 157.052 208.386C157.347 208.011 157.498 207.574 157.503 207.074C157.498 206.619 157.364 206.244 157.103 205.949C156.841 205.648 156.475 205.398 156.003 205.199C155.537 204.994 154.992 204.812 154.367 204.653L152.381 204.142C150.944 203.773 149.807 203.213 148.972 202.463C148.142 201.707 147.728 200.705 147.728 199.455C147.728 198.426 148.006 197.526 148.563 196.753C149.125 195.98 149.89 195.381 150.856 194.955C151.821 194.523 152.915 194.307 154.137 194.307C155.375 194.307 156.461 194.523 157.392 194.955C158.33 195.381 159.066 195.974 159.6 196.736C160.134 197.491 160.41 198.361 160.427 199.344H157.384ZM182.024 200.435H178.837C178.746 199.912 178.578 199.449 178.334 199.045C178.09 198.636 177.786 198.29 177.422 198.006C177.059 197.722 176.644 197.509 176.178 197.366C175.718 197.219 175.22 197.145 174.686 197.145C173.737 197.145 172.897 197.384 172.164 197.861C171.431 198.332 170.857 199.026 170.442 199.94C170.027 200.849 169.82 201.96 169.82 203.273C169.82 204.608 170.027 205.733 170.442 206.648C170.862 207.557 171.436 208.244 172.164 208.71C172.897 209.17 173.735 209.401 174.678 209.401C175.201 209.401 175.689 209.332 176.144 209.196C176.604 209.054 177.016 208.847 177.38 208.574C177.749 208.301 178.059 207.966 178.309 207.568C178.564 207.17 178.74 206.716 178.837 206.205L182.024 206.222C181.905 207.051 181.647 207.83 181.249 208.557C180.857 209.284 180.343 209.926 179.706 210.483C179.07 211.034 178.326 211.466 177.473 211.778C176.621 212.085 175.675 212.239 174.635 212.239C173.101 212.239 171.732 211.884 170.527 211.173C169.323 210.463 168.374 209.438 167.681 208.097C166.987 206.756 166.641 205.148 166.641 203.273C166.641 201.392 166.99 199.784 167.689 198.449C168.388 197.108 169.34 196.082 170.544 195.372C171.749 194.662 173.112 194.307 174.635 194.307C175.607 194.307 176.51 194.443 177.345 194.716C178.181 194.989 178.925 195.389 179.578 195.918C180.232 196.44 180.769 197.082 181.189 197.844C181.615 198.599 181.894 199.463 182.024 200.435ZM191.682 194.545V212H188.52V194.545H191.682ZM198.706 212V194.545H205.251C206.592 194.545 207.717 194.795 208.626 195.295C209.541 195.795 210.232 196.483 210.697 197.358C211.169 198.227 211.405 199.216 211.405 200.324C211.405 201.443 211.169 202.437 210.697 203.307C210.226 204.176 209.53 204.861 208.609 205.361C207.689 205.855 206.555 206.102 205.209 206.102H200.871V203.503H204.783C205.567 203.503 206.209 203.366 206.709 203.094C207.209 202.821 207.578 202.446 207.817 201.969C208.061 201.491 208.183 200.943 208.183 200.324C208.183 199.705 208.061 199.159 207.817 198.688C207.578 198.216 207.206 197.849 206.7 197.588C206.2 197.321 205.555 197.188 204.766 197.188H201.868V212H198.706ZM217.751 212V194.545H220.913V209.349H228.601V212H217.751ZM234.945 212V194.545H246.297V197.196H238.107V201.935H245.709V204.585H238.107V209.349H246.365V212H234.945Z" fill="#F1F1EF"/>
<circle cx="349" cy="130" r="13" stroke="#64748B" stroke-width="4"/>
<path d="M380.963 139H377.588L383.733 121.545H387.636L393.79 139H390.415L385.753 125.125H385.616L380.963 139ZM381.074 132.156H390.278V134.696H381.074V132.156ZM405.604 139H399.689V121.545H405.723C407.456 121.545 408.944 121.895 410.189 122.594C411.439 123.287 412.399 124.284 413.069 125.585C413.74 126.886 414.075 128.443 414.075 130.256C414.075 132.074 413.737 133.636 413.061 134.943C412.39 136.25 411.422 137.253 410.155 137.952C408.893 138.651 407.376 139 405.604 139ZM402.851 136.264H405.45C406.666 136.264 407.68 136.043 408.493 135.599C409.305 135.151 409.916 134.483 410.325 133.597C410.734 132.705 410.939 131.591 410.939 130.256C410.939 128.92 410.734 127.812 410.325 126.932C409.916 126.045 409.311 125.384 408.51 124.946C407.714 124.503 406.726 124.281 405.544 124.281H402.851V136.264ZM420.679 121.545H424.549L429.731 134.193H429.935L435.117 121.545H438.986V139H435.952V127.009H435.79L430.966 138.949H428.699L423.875 126.983H423.713V139H420.679V121.545ZM449.191 121.545V139H446.029V121.545H449.191ZM456.215 139V121.545H462.761C464.102 121.545 465.227 121.778 466.136 122.244C467.051 122.71 467.741 123.364 468.207 124.205C468.678 125.04 468.914 126.014 468.914 127.128C468.914 128.247 468.676 129.219 468.198 130.043C467.727 130.861 467.031 131.494 466.11 131.943C465.19 132.386 464.059 132.608 462.718 132.608H458.056V129.983H462.292C463.076 129.983 463.718 129.875 464.218 129.659C464.718 129.437 465.088 129.116 465.326 128.696C465.57 128.27 465.693 127.747 465.693 127.128C465.693 126.509 465.57 125.98 465.326 125.543C465.082 125.099 464.71 124.764 464.21 124.537C463.71 124.304 463.065 124.188 462.275 124.188H459.377V139H456.215ZM465.232 131.091L469.553 139H466.025L461.781 131.091H465.232ZM475.425 139V121.545H486.777V124.196H478.587V128.935H486.189V131.585H478.587V136.349H486.845V139H475.425ZM493.603 139V121.545H500.148C501.489 121.545 502.614 121.778 503.523 122.244C504.438 122.71 505.128 123.364 505.594 124.205C506.066 125.04 506.302 126.014 506.302 127.128C506.302 128.247 506.063 129.219 505.586 130.043C505.114 130.861 504.418 131.494 503.498 131.943C502.577 132.386 501.447 132.608 500.106 132.608H495.444V129.983H499.68C500.464 129.983 501.106 129.875 501.606 129.659C502.106 129.437 502.475 129.116 502.714 128.696C502.958 128.27 503.08 127.747 503.08 127.128C503.08 126.509 502.958 125.98 502.714 125.543C502.469 125.099 502.097 124.764 501.597 124.537C501.097 124.304 500.452 124.188 499.662 124.188H496.765V139H493.603ZM502.62 131.091L506.941 139H503.412L499.168 131.091H502.62Z" fill="#F1F1EF"/>
<circle cx="349" cy="178" r="13" stroke="#64748B" stroke-width="4"/>
<path d="M382.395 187L377.469 169.545H380.869L384.014 182.372H384.176L387.534 169.545H390.628L393.994 182.381H394.148L397.293 169.545H400.693L395.767 187H392.648L389.153 174.753H389.017L385.514 187H382.395ZM421.145 178.273C421.145 180.153 420.792 181.764 420.088 183.105C419.389 184.44 418.435 185.463 417.224 186.173C416.02 186.884 414.653 187.239 413.125 187.239C411.596 187.239 410.227 186.884 409.017 186.173C407.812 185.457 406.858 184.432 406.153 183.097C405.454 181.756 405.105 180.148 405.105 178.273C405.105 176.392 405.454 174.784 406.153 173.449C406.858 172.108 407.812 171.082 409.017 170.372C410.227 169.662 411.596 169.307 413.125 169.307C414.653 169.307 416.02 169.662 417.224 170.372C418.435 171.082 419.389 172.108 420.088 173.449C420.792 174.784 421.145 176.392 421.145 178.273ZM417.966 178.273C417.966 176.949 417.758 175.832 417.344 174.923C416.935 174.009 416.366 173.318 415.639 172.852C414.912 172.381 414.074 172.145 413.125 172.145C412.176 172.145 411.338 172.381 410.611 172.852C409.883 173.318 409.312 174.009 408.898 174.923C408.488 175.832 408.284 176.949 408.284 178.273C408.284 179.597 408.488 180.716 408.898 181.631C409.312 182.54 409.883 183.23 410.611 183.702C411.338 184.168 412.176 184.401 413.125 184.401C414.074 184.401 414.912 184.168 415.639 183.702C416.366 183.23 416.935 182.54 417.344 181.631C417.758 180.716 417.966 179.597 417.966 178.273ZM427.734 187V169.545H434.28C435.62 169.545 436.745 169.778 437.655 170.244C438.569 170.71 439.26 171.364 439.726 172.205C440.197 173.04 440.433 174.014 440.433 175.128C440.433 176.247 440.194 177.219 439.717 178.043C439.245 178.861 438.549 179.494 437.629 179.943C436.709 180.386 435.578 180.608 434.237 180.608H429.575V177.983H433.811C434.595 177.983 435.237 177.875 435.737 177.659C436.237 177.437 436.606 177.116 436.845 176.696C437.089 176.27 437.211 175.747 437.211 175.128C437.211 174.509 437.089 173.98 436.845 173.543C436.601 173.099 436.228 172.764 435.728 172.537C435.228 172.304 434.584 172.188 433.794 172.188H430.896V187H427.734ZM436.751 179.091L441.072 187H437.544L433.299 179.091H436.751ZM456.429 174.344C456.35 173.599 456.014 173.02 455.424 172.605C454.838 172.19 454.077 171.983 453.139 171.983C452.48 171.983 451.915 172.082 451.443 172.281C450.972 172.48 450.611 172.75 450.361 173.091C450.111 173.432 449.983 173.821 449.978 174.259C449.978 174.622 450.06 174.937 450.225 175.205C450.395 175.472 450.625 175.699 450.915 175.886C451.205 176.068 451.526 176.222 451.878 176.347C452.23 176.472 452.586 176.577 452.943 176.662L454.58 177.071C455.239 177.224 455.872 177.432 456.48 177.693C457.094 177.955 457.642 178.284 458.125 178.682C458.614 179.08 459 179.56 459.284 180.122C459.568 180.685 459.711 181.344 459.711 182.099C459.711 183.122 459.449 184.023 458.926 184.801C458.404 185.574 457.648 186.179 456.659 186.616C455.676 187.048 454.486 187.264 453.088 187.264C451.73 187.264 450.551 187.054 449.551 186.634C448.557 186.213 447.779 185.599 447.216 184.793C446.659 183.986 446.358 183.003 446.313 181.844H449.424C449.469 182.452 449.657 182.957 449.986 183.361C450.316 183.764 450.745 184.065 451.273 184.264C451.807 184.463 452.404 184.562 453.063 184.562C453.75 184.562 454.353 184.46 454.87 184.256C455.392 184.045 455.801 183.756 456.097 183.386C456.392 183.011 456.543 182.574 456.549 182.074C456.543 181.619 456.409 181.244 456.148 180.949C455.887 180.648 455.52 180.398 455.049 180.199C454.583 179.994 454.037 179.812 453.412 179.653L451.426 179.142C449.989 178.773 448.853 178.213 448.017 177.463C447.188 176.707 446.773 175.705 446.773 174.455C446.773 173.426 447.051 172.526 447.608 171.753C448.171 170.98 448.935 170.381 449.901 169.955C450.867 169.523 451.961 169.307 453.182 169.307C454.421 169.307 455.506 169.523 456.438 169.955C457.375 170.381 458.111 170.974 458.645 171.736C459.179 172.491 459.455 173.361 459.472 174.344H456.429ZM466.129 187V169.545H469.291V176.935H477.379V169.545H480.55V187H477.379V179.585H469.291V187H466.129ZM490.751 169.545V187H487.589V169.545H490.751ZM497.775 187V169.545H504.32C505.661 169.545 506.786 169.795 507.695 170.295C508.61 170.795 509.3 171.483 509.766 172.358C510.238 173.227 510.474 174.216 510.474 175.324C510.474 176.443 510.238 177.437 509.766 178.307C509.295 179.176 508.599 179.861 507.678 180.361C506.758 180.855 505.624 181.102 504.278 181.102H499.939V178.503H503.851C504.636 178.503 505.278 178.366 505.778 178.094C506.278 177.821 506.647 177.446 506.886 176.969C507.13 176.491 507.252 175.943 507.252 175.324C507.252 174.705 507.13 174.159 506.886 173.688C506.647 173.216 506.275 172.849 505.769 172.588C505.269 172.321 504.624 172.188 503.834 172.188H500.937V187H497.775ZM516.82 187V169.545H523.365C524.706 169.545 525.831 169.795 526.74 170.295C527.655 170.795 528.346 171.483 528.812 172.358C529.283 173.227 529.519 174.216 529.519 175.324C529.519 176.443 529.283 177.437 528.812 178.307C528.34 179.176 527.644 179.861 526.723 180.361C525.803 180.855 524.669 181.102 523.323 181.102H518.985V178.503H522.897C523.681 178.503 524.323 178.366 524.823 178.094C525.323 177.821 525.692 177.446 525.931 176.969C526.175 176.491 526.297 175.943 526.297 175.324C526.297 174.705 526.175 174.159 525.931 173.688C525.692 173.216 525.32 172.849 524.814 172.588C524.314 172.321 523.669 172.188 522.88 172.188H519.982V187H516.82ZM535.865 187V169.545H547.218V172.196H539.027V176.935H546.63V179.585H539.027V184.349H547.286V187H535.865ZM554.043 187V169.545H560.589C561.93 169.545 563.055 169.778 563.964 170.244C564.879 170.71 565.569 171.364 566.035 172.205C566.507 173.04 566.742 174.014 566.742 175.128C566.742 176.247 566.504 177.219 566.026 178.043C565.555 178.861 564.859 179.494 563.938 179.943C563.018 180.386 561.887 180.608 560.546 180.608H555.884V177.983H560.12C560.904 177.983 561.546 177.875 562.046 177.659C562.546 177.437 562.916 177.116 563.154 176.696C563.399 176.27 563.521 175.747 563.521 175.128C563.521 174.509 563.399 173.98 563.154 173.543C562.91 173.099 562.538 172.764 562.038 172.537C561.538 172.304 560.893 172.188 560.103 172.188H557.205V187H554.043ZM563.061 179.091L567.382 187H563.853L559.609 179.091H563.061Z" fill="#F1F1EF"/>
<circle cx="349" cy="226" r="13" stroke="#64748B" stroke-width="4"/>
<path d="M380.963 235H377.588L383.733 217.545H387.636L393.79 235H390.415L385.753 221.125H385.616L380.963 235ZM381.074 228.156H390.278V230.696H381.074V228.156ZM405.604 235H399.689V217.545H405.723C407.456 217.545 408.944 217.895 410.189 218.594C411.439 219.287 412.399 220.284 413.069 221.585C413.74 222.886 414.075 224.443 414.075 226.256C414.075 228.074 413.737 229.636 413.061 230.943C412.39 232.25 411.422 233.253 410.155 233.952C408.893 234.651 407.376 235 405.604 235ZM402.851 232.264H405.45C406.666 232.264 407.68 232.043 408.493 231.599C409.305 231.151 409.916 230.483 410.325 229.597C410.734 228.705 410.939 227.591 410.939 226.256C410.939 224.92 410.734 223.812 410.325 222.932C409.916 222.045 409.311 221.384 408.51 220.946C407.714 220.503 406.726 220.281 405.544 220.281H402.851V232.264ZM420.679 235V217.545H423.841V224.935H431.929V217.545H435.1V235H431.929V227.585H423.841V235H420.679ZM442.139 235V217.545H453.491V220.196H445.301V224.935H452.903V227.585H445.301V232.349H453.559V235H442.139ZM460.317 235V217.545H466.862C468.203 217.545 469.328 217.778 470.237 218.244C471.152 218.71 471.842 219.364 472.308 220.205C472.78 221.04 473.016 222.014 473.016 223.128C473.016 224.247 472.777 225.219 472.3 226.043C471.828 226.861 471.132 227.494 470.212 227.943C469.291 228.386 468.161 228.608 466.82 228.608H462.158V225.983H466.394C467.178 225.983 467.82 225.875 468.32 225.659C468.82 225.437 469.189 225.116 469.428 224.696C469.672 224.27 469.794 223.747 469.794 223.128C469.794 222.509 469.672 221.98 469.428 221.543C469.183 221.099 468.811 220.764 468.311 220.537C467.811 220.304 467.166 220.188 466.377 220.188H463.479V235H460.317ZM469.334 227.091L473.655 235H470.127L465.882 227.091H469.334ZM479.526 235V217.545H490.879V220.196H482.688V224.935H490.29V227.585H482.688V232.349H490.947V235H479.526ZM512.048 217.545V235H509.236L501.011 223.111H500.866V235H497.704V217.545H500.534L508.75 229.443H508.903V217.545H512.048ZM518.326 220.196V217.545H532.253V220.196H526.858V235H523.721V220.196H518.326Z" fill="#F1F1EF"/>
<line x1="323" y1="226" x2="541" y2="226" stroke="#F43F5E" stroke-width="6"/>
<line x1="323" y1="178" x2="569" y2="178" stroke="#F43F5E" stroke-width="6"/>
<line x1="323" y1="130" x2="513" y2="130" stroke="#F43F5E" stroke-width="6"/>
</svg>
